<svg id="svg" xmlns="http://www.w3.org/2000/svg" xmlns:xlink="http://www.w3.org/1999/xlink" width="400" height="181.4963797264682" viewBox="0, 0, 400,181.4963797264682"><g id="svgg"><path id="path0" d="M60.694 1.041 C 60.990 1.619,65.485 9.803,70.683 19.227 L 80.133 36.362 75.991 43.845 C 73.713 47.960,67.107 59.944,61.310 70.475 C 55.514 81.006,50.079 90.853,49.234 92.357 C 47.939 94.662,44.055 101.712,30.088 127.112 C 29.164 128.793,26.051 134.441,23.170 139.662 C 20.289 144.883,17.176 150.531,16.251 152.212 C 15.327 153.894,11.365 161.093,7.446 168.210 C 3.528 175.327,0.322 181.228,0.322 181.323 C 0.322 181.418,4.932 181.496,10.566 181.496 L 20.810 181.496 39.028 148.431 L 57.247 115.366 90.453 115.366 L 123.659 115.366 141.878 148.430 L 160.097 181.494 170.464 181.495 L 180.831 181.496 180.233 180.451 C 179.216 178.672,164.789 152.518,152.008 129.284 C 151.058 127.558,149.505 124.735,148.556 123.009 C 147.607 121.283,143.677 114.151,139.823 107.160 C 135.969 100.169,132.059 93.073,131.133 91.392 C 130.207 89.710,126.296 82.615,122.442 75.623 C 118.588 68.632,114.759 61.681,113.934 60.177 C 111.929 56.523,96.010 27.639,87.597 12.389 L 80.851 0.161 70.503 0.076 L 60.156 -0.009 60.694 1.041 M98.994 1.046 C 99.290 1.621,116.250 32.430,136.684 69.509 C 157.117 106.589,179.360 146.954,186.113 159.210 L 198.391 181.494 208.643 181.495 C 218.274 181.496,218.881 181.462,218.679 180.933 C 218.483 180.420,212.809 170.076,204.078 154.315 C 202.219 150.958,200.701 148.062,200.707 147.879 C 200.716 147.532,229.632 94.951,230.045 94.530 C 230.174 94.397,241.122 113.911,254.374 137.893 L 278.467 181.496 288.745 181.496 C 298.168 181.496,299.006 181.452,298.819 180.965 C 298.707 180.673,295.847 175.423,292.463 169.300 C 289.079 163.176,284.831 155.487,283.022 152.212 C 281.214 148.938,276.652 140.684,272.886 133.870 C 262.251 114.628,259.415 109.494,257.603 106.195 C 256.679 104.513,254.402 100.386,252.543 97.023 C 221.963 41.706,218.816 36.007,207.577 15.607 C 203.092 7.466,199.255 0.621,199.051 0.398 C 198.764 0.083,196.380 0.010,188.479 0.076 L 178.278 0.161 199.051 37.760 L 219.824 75.359 215.185 83.778 C 212.634 88.408,206.596 99.364,201.767 108.126 C 196.938 116.887,192.416 125.105,191.719 126.388 C 190.047 129.463,190.576 129.813,186.978 123.250 C 185.958 121.392,181.972 114.151,178.118 107.160 C 174.264 100.169,170.353 93.073,169.427 91.392 C 168.502 89.710,164.591 82.615,160.738 75.623 C 156.885 68.632,152.976 61.537,152.052 59.855 C 151.128 58.174,143.744 44.779,135.643 30.088 C 127.542 15.398,120.540 2.619,120.084 1.689 L 119.255 0.000 108.855 -0.000 L 98.455 -0.000 98.994 1.046 M217.093 1.041 C 217.390 1.619,234.352 32.430,254.785 69.509 C 275.218 106.589,297.462 146.954,304.214 159.210 L 316.492 181.494 326.744 181.495 C 336.375 181.496,336.983 181.462,336.780 180.933 C 336.584 180.420,330.910 170.076,322.180 154.315 C 320.320 150.958,318.803 148.062,318.808 147.879 C 318.813 147.696,337.083 114.403,359.408 73.894 C 381.734 33.385,400.000 0.187,400.000 0.121 C 400.000 0.054,395.380 0.000,389.734 0.000 L 379.469 0.000 376.585 5.229 C 374.999 8.105,371.344 14.730,368.464 19.952 C 365.583 25.173,362.449 30.857,361.500 32.582 C 360.551 34.308,358.998 37.132,358.049 38.858 C 357.100 40.583,353.967 46.267,351.086 51.488 C 348.205 56.710,345.092 62.357,344.167 64.039 C 343.242 65.720,339.332 72.816,335.478 79.807 C 315.848 115.416,310.982 124.251,309.820 126.388 C 308.149 129.463,308.678 129.813,305.079 123.250 C 304.060 121.392,300.073 114.151,296.219 107.160 C 292.365 100.169,288.454 93.073,287.529 91.392 C 286.603 89.710,282.692 82.615,278.838 75.623 C 274.984 68.632,271.155 61.681,270.329 60.177 C 267.832 55.627,251.189 25.425,243.995 12.389 L 237.247 0.161 226.899 0.076 L 216.552 -0.009 217.093 1.041 M101.931 75.936 C 108.170 87.258,113.274 96.599,113.274 96.692 C 113.274 96.786,102.981 96.862,90.400 96.862 C 77.243 96.862,67.570 96.741,67.632 96.577 C 67.920 95.811,90.287 55.365,90.426 55.358 C 90.515 55.354,95.692 64.614,101.931 75.936 " stroke="none" fill="#000000" fill-rule="evenodd"></path></g></svg>